<svg width="20" height="20" viewBox="0 0 16 16" fill="none" xmlns="http://www.w3.org/2000/svg">
<path d="M7.33331 3.33325H14M7.33331 5.99992H10.6666" stroke="#88A5B9" stroke-width="1.25" stroke-linecap="round" stroke-linejoin="round"/>
<path d="M4 3.33325H2.66667C2.29848 3.33325 2 3.63173 2 3.99992V5.33325C2 5.70144 2.29848 5.99992 2.66667 5.99992H4C4.36819 5.99992 4.66667 5.70144 4.66667 5.33325V3.99992C4.66667 3.63173 4.36819 3.33325 4 3.33325Z" stroke="#88A5B9" stroke-width="1.25" stroke-linecap="round" stroke-linejoin="round"/>
<path d="M7.33331 10H14M7.33331 12.6667H10.6666" stroke="#88A5B9" stroke-width="1.25" stroke-linecap="round" stroke-linejoin="round"/>
<path d="M4 10H2.66667C2.29848 10 2 10.2985 2 10.6667V12C2 12.3682 2.29848 12.6667 2.66667 12.6667H4C4.36819 12.6667 4.66667 12.3682 4.66667 12V10.6667C4.66667 10.2985 4.36819 10 4 10Z" stroke="#88A5B9" stroke-width="1.25" stroke-linecap="round" stroke-linejoin="round"/>
</svg>
